# xmcd CD database file
#
# Track frame offsets:
#	150
#	18062
#	33600
#	49132
#	62360
#	86720
#	94380
#
# Disc length: 1478 seconds
#
# Revision: 0
# Processed by: cddbd v1.5PL3 Copyright (c) Steve Scherf et al.
# Submitted via: CDex 1.40Beta9
#
DISCID=5105c407
DTITLE=LIFE GOES ON - GOOD PAPA, BAD PAPA
DYEAR=1900
DGENRE=Pop
TTITLE0=THE ROBOTS(BAD PAPA MIX)
TTITLE1=東京ぬけ道ガール
TTITLE2=Non Sono Cretina -10番街の殺人-
TTITLE3=いいパパ、いいママ、悪いパパ ポルカ(Good Papa, Good Mama, Bad Papa Polka)
TTITLE4=ANGEL
TTITLE5=Pere Automatique
TTITLE6=探検隊
EXTD=ID3G: 13
EXTT0=
EXTT1=
EXTT2=
EXTT3=
EXTT4=
EXTT5=
EXTT6=
PLAYORDER=
